{
  "asset": {
    "generator": "Khronos glTF Blender I/O v5.1.20",
    "version": "2.0"
  },
  "scene": 0,
  "scenes": [
    {
      "name": "Scene",
      "nodes": [
        0
      ]
    }
  ],
  "nodes": [
    {
      "mesh": 0,
      "name": "portable_searchlight"
    }
  ],
  "materials": [
    {
      "doubleSided": true,
      "name": "portable_searchlight",
      "normalTexture": {
        "index": 0
      },
      "pbrMetallicRoughness": {
        "baseColorTexture": {
          "index": 1
        },
        "metallicRoughnessTexture": {
          "index": 2
        }
      }
    },
    {
      "alphaMode": "BLEND",
      "doubleSided": true,
      "name": "portable_searchlight_glass",
      "normalTexture": {
        "index": 3
      },
      "pbrMetallicRoughness": {
        "baseColorTexture": {
          "index": 4
        },
        "metallicRoughnessTexture": {
          "index": 5
        }
      }
    }
  ],
  "meshes": [
    {
      "name": "Circle.048",
      "primitives": [
        {
          "attributes": {
            "POSITION": 0,
            "NORMAL": 1,
            "TEXCOORD_0": 2
          },
          "indices": 3,
          "material": 0
        },
        {
          "attributes": {
            "POSITION": 4,
            "NORMAL": 5,
            "TEXCOORD_0": 6
          },
          "indices": 7,
          "material": 1
        }
      ]
    }
  ],
  "textures": [
    {
      "sampler": 0,
      "source": 0
    },
    {
      "sampler": 0,
      "source": 1
    },
    {
      "sampler": 0,
      "source": 2
    },
    {
      "sampler": 0,
      "source": 0
    },
    {
      "sampler": 0,
      "source": 3
    },
    {
      "sampler": 0,
      "source": 2
    }
  ],
  "images": [
    {
      "mimeType": "image/jpeg",
      "name": "portable_searchlight_nor_gl",
      "uri": "textures/portable_searchlight_nor_gl_1k.jpg"
    },
    {
      "mimeType": "image/jpeg",
      "name": "portable_searchlight_diff",
      "uri": "textures/portable_searchlight_diff_1k.jpg"
    },
    {
      "mimeType": "image/jpeg",
      "name": "portable_searchlight_metal-portable_searchlight_rough",
      "uri": "textures/portable_searchlight_arm_1k.jpg"
    },
    {
      "mimeType": "image/jpeg",
      "name": "portable_searchlight_diff-portable_searchlight_alpha",
      "uri": "textures/portable_searchlight_diff_1k.jpg"
    }
  ],
  "accessors": [
    {
      "bufferView": 0,
      "componentType": 5126,
      "count": 10514,
      "max": [
        0.08263799548149109,
        0.10270904749631882,
        0.12599794566631317
      ],
      "min": [
        -0.08263799548149109,
        -0.08263798803091049,
        -0.12738561630249023
      ],
      "type": "VEC3"
    },
    {
      "bufferView": 1,
      "componentType": 5126,
      "count": 10514,
      "type": "VEC3"
    },
    {
      "bufferView": 2,
      "componentType": 5126,
      "count": 10514,
      "type": "VEC2"
    },
    {
      "bufferView": 3,
      "componentType": 5123,
      "count": 51834,
      "type": "SCALAR"
    },
    {
      "bufferView": 4,
      "componentType": 5126,
      "count": 916,
      "max": [
        0.06895079463720322,
        0.0689508467912674,
        0.11722980439662933
      ],
      "min": [
        -0.06895080953836441,
        -0.06895075738430023,
        -0.08503346890211105
      ],
      "type": "VEC3"
    },
    {
      "bufferView": 5,
      "componentType": 5126,
      "count": 916,
      "type": "VEC3"
    },
    {
      "bufferView": 6,
      "componentType": 5126,
      "count": 916,
      "type": "VEC2"
    },
    {
      "bufferView": 7,
      "componentType": 5123,
      "count": 4572,
      "type": "SCALAR"
    }
  ],
  "bufferViews": [
    {
      "buffer": 0,
      "byteLength": 126168,
      "byteOffset": 0,
      "target": 34962
    },
    {
      "buffer": 0,
      "byteLength": 126168,
      "byteOffset": 126168,
      "target": 34962
    },
    {
      "buffer": 0,
      "byteLength": 84112,
      "byteOffset": 252336,
      "target": 34962
    },
    {
      "buffer": 0,
      "byteLength": 103668,
      "byteOffset": 336448,
      "target": 34963
    },
    {
      "buffer": 0,
      "byteLength": 10992,
      "byteOffset": 440116,
      "target": 34962
    },
    {
      "buffer": 0,
      "byteLength": 10992,
      "byteOffset": 451108,
      "target": 34962
    },
    {
      "buffer": 0,
      "byteLength": 7328,
      "byteOffset": 462100,
      "target": 34962
    },
    {
      "buffer": 0,
      "byteLength": 9144,
      "byteOffset": 469428,
      "target": 34963
    }
  ],
  "samplers": [
    {
      "magFilter": 9729,
      "minFilter": 9987
    }
  ],
  "buffers": [
    {
      "byteLength": 478572,
      "uri": "portable_searchlight.bin"
    }
  ]
}