{
  "asset": {
    "generator": "Khronos glTF Blender I/O v5.1.18",
    "version": "2.0"
  },
  "scene": 0,
  "scenes": [
    {
      "name": "Scene",
      "nodes": [
        0,
        1,
        2,
        3
      ]
    }
  ],
  "nodes": [
    {
      "mesh": 0,
      "name": "vintage_lighter_body"
    },
    {
      "mesh": 1,
      "name": "vintage_lighter_flintstone",
      "translation": [
        0.011324338614940643,
        0.016590245068073273,
        0
      ]
    },
    {
      "mesh": 2,
      "name": "vintage_lighter_hammer",
      "translation": [
        -0.014110637828707695,
        0.012037280946969986,
        0
      ]
    },
    {
      "mesh": 3,
      "name": "vintage_lighter_hinge",
      "rotation": [
        0,
        0,
        0.9063078165054321,
        0.4226182699203491
      ],
      "translation": [
        -0.019819632172584534,
        0.006426794454455376,
        0
      ]
    }
  ],
  "materials": [
    {
      "name": "vintage_lighter",
      "normalTexture": {
        "index": 0
      },
      "pbrMetallicRoughness": {
        "baseColorTexture": {
          "index": 1
        },
        "metallicRoughnessTexture": {
          "index": 2
        }
      }
    },
    {
      "alphaMode": "BLEND",
      "name": "vintage_lighter_alpha",
      "normalTexture": {
        "index": 3
      },
      "pbrMetallicRoughness": {
        "baseColorTexture": {
          "index": 4
        },
        "metallicRoughnessTexture": {
          "index": 5
        }
      }
    }
  ],
  "meshes": [
    {
      "name": "Cube.001",
      "primitives": [
        {
          "attributes": {
            "POSITION": 0,
            "NORMAL": 1,
            "TEXCOORD_0": 2
          },
          "indices": 3,
          "material": 0
        },
        {
          "attributes": {
            "POSITION": 4,
            "NORMAL": 5,
            "TEXCOORD_0": 6
          },
          "indices": 7,
          "material": 1
        }
      ]
    },
    {
      "name": "Circle.002",
      "primitives": [
        {
          "attributes": {
            "POSITION": 8,
            "NORMAL": 9,
            "TEXCOORD_0": 10
          },
          "indices": 11,
          "material": 0
        }
      ]
    },
    {
      "name": "Circle.006",
      "primitives": [
        {
          "attributes": {
            "POSITION": 12,
            "NORMAL": 13,
            "TEXCOORD_0": 14
          },
          "indices": 15,
          "material": 0
        }
      ]
    },
    {
      "name": "Cylinder",
      "primitives": [
        {
          "attributes": {
            "POSITION": 16,
            "NORMAL": 17,
            "TEXCOORD_0": 18
          },
          "indices": 19,
          "material": 0
        }
      ]
    }
  ],
  "textures": [
    {
      "sampler": 0,
      "source": 0
    },
    {
      "sampler": 0,
      "source": 1
    },
    {
      "sampler": 0,
      "source": 2
    },
    {
      "sampler": 0,
      "source": 0
    },
    {
      "sampler": 0,
      "source": 3
    },
    {
      "sampler": 0,
      "source": 2
    }
  ],
  "images": [
    {
      "mimeType": "image/jpeg",
      "name": "vintage_lighter_nor_gl",
      "uri": "textures/vintage_lighter_nor_gl_1k.jpg"
    },
    {
      "mimeType": "image/jpeg",
      "name": "vintage_lighter_diff",
      "uri": "textures/vintage_lighter_diff_1k.jpg"
    },
    {
      "mimeType": "image/jpeg",
      "name": "vintage_lighter_metal-vintage_lighter_rough",
      "uri": "textures/vintage_lighter_arm_1k.jpg"
    },
    {
      "mimeType": "image/jpeg",
      "name": "vintage_lighter_diff-vintage_lighter_alpha",
      "uri": "textures/vintage_lighter_diff_1k.jpg"
    }
  ],
  "accessors": [
    {
      "bufferView": 0,
      "componentType": 5126,
      "count": 1904,
      "max": [
        0.019500000402331352,
        0.024844855070114136,
        0.007000001147389412
      ],
      "min": [
        -0.019500000402331352,
        -0.02850000187754631,
        -0.007000001613050699
      ],
      "type": "VEC3"
    },
    {
      "bufferView": 1,
      "componentType": 5126,
      "count": 1904,
      "type": "VEC3"
    },
    {
      "bufferView": 2,
      "componentType": 5126,
      "count": 1904,
      "type": "VEC2"
    },
    {
      "bufferView": 3,
      "componentType": 5123,
      "count": 6054,
      "type": "SCALAR"
    },
    {
      "bufferView": 4,
      "componentType": 5126,
      "count": 91,
      "max": [
        0.0010514218593016267,
        0.0227323267608881,
        0.001648001722060144
      ],
      "min": [
        -0.003879300318658352,
        0.019487343728542328,
        -0.001182804349809885
      ],
      "type": "VEC3"
    },
    {
      "bufferView": 5,
      "componentType": 5126,
      "count": 91,
      "type": "VEC3"
    },
    {
      "bufferView": 6,
      "componentType": 5126,
      "count": 91,
      "type": "VEC2"
    },
    {
      "bufferView": 7,
      "componentType": 5123,
      "count": 180,
      "type": "SCALAR"
    },
    {
      "bufferView": 8,
      "componentType": 5126,
      "count": 294,
      "max": [
        0.005161354783922434,
        0.0051613557152450085,
        0.0027771193999797106
      ],
      "min": [
        -0.005161356646567583,
        -0.0051613557152450085,
        -0.0027243189979344606
      ],
      "type": "VEC3"
    },
    {
      "bufferView": 9,
      "componentType": 5126,
      "count": 294,
      "type": "VEC3"
    },
    {
      "bufferView": 10,
      "componentType": 5126,
      "count": 294,
      "type": "VEC2"
    },
    {
      "bufferView": 11,
      "componentType": 5123,
      "count": 1056,
      "type": "SCALAR"
    },
    {
      "bufferView": 12,
      "componentType": 5126,
      "count": 276,
      "max": [
        0.003600346390157938,
        0.010690352879464626,
        0.002296557417139411
      ],
      "min": [
        -0.0018549953820183873,
        -0.0015951170353218913,
        -0.002252893755212426
      ],
      "type": "VEC3"
    },
    {
      "bufferView": 13,
      "componentType": 5126,
      "count": 276,
      "type": "VEC3"
    },
    {
      "bufferView": 14,
      "componentType": 5126,
      "count": 276,
      "type": "VEC2"
    },
    {
      "bufferView": 15,
      "componentType": 5123,
      "count": 1008,
      "type": "SCALAR"
    },
    {
      "bufferView": 16,
      "componentType": 5126,
      "count": 504,
      "max": [
        0.03931961953639984,
        0.02256789058446884,
        0.007000000216066837
      ],
      "min": [
        -0.0015822068089619279,
        -0.0015822065761312842,
        -0.007000004407018423
      ],
      "type": "VEC3"
    },
    {
      "bufferView": 17,
      "componentType": 5126,
      "count": 504,
      "type": "VEC3"
    },
    {
      "bufferView": 18,
      "componentType": 5126,
      "count": 504,
      "type": "VEC2"
    },
    {
      "bufferView": 19,
      "componentType": 5123,
      "count": 1800,
      "type": "SCALAR"
    }
  ],
  "bufferViews": [
    {
      "buffer": 0,
      "byteLength": 22848,
      "byteOffset": 0,
      "target": 34962
    },
    {
      "buffer": 0,
      "byteLength": 22848,
      "byteOffset": 22848,
      "target": 34962
    },
    {
      "buffer": 0,
      "byteLength": 15232,
      "byteOffset": 45696,
      "target": 34962
    },
    {
      "buffer": 0,
      "byteLength": 12108,
      "byteOffset": 60928,
      "target": 34963
    },
    {
      "buffer": 0,
      "byteLength": 1092,
      "byteOffset": 73036,
      "target": 34962
    },
    {
      "buffer": 0,
      "byteLength": 1092,
      "byteOffset": 74128,
      "target": 34962
    },
    {
      "buffer": 0,
      "byteLength": 728,
      "byteOffset": 75220,
      "target": 34962
    },
    {
      "buffer": 0,
      "byteLength": 360,
      "byteOffset": 75948,
      "target": 34963
    },
    {
      "buffer": 0,
      "byteLength": 3528,
      "byteOffset": 76308,
      "target": 34962
    },
    {
      "buffer": 0,
      "byteLength": 3528,
      "byteOffset": 79836,
      "target": 34962
    },
    {
      "buffer": 0,
      "byteLength": 2352,
      "byteOffset": 83364,
      "target": 34962
    },
    {
      "buffer": 0,
      "byteLength": 2112,
      "byteOffset": 85716,
      "target": 34963
    },
    {
      "buffer": 0,
      "byteLength": 3312,
      "byteOffset": 87828,
      "target": 34962
    },
    {
      "buffer": 0,
      "byteLength": 3312,
      "byteOffset": 91140,
      "target": 34962
    },
    {
      "buffer": 0,
      "byteLength": 2208,
      "byteOffset": 94452,
      "target": 34962
    },
    {
      "buffer": 0,
      "byteLength": 2016,
      "byteOffset": 96660,
      "target": 34963
    },
    {
      "buffer": 0,
      "byteLength": 6048,
      "byteOffset": 98676,
      "target": 34962
    },
    {
      "buffer": 0,
      "byteLength": 6048,
      "byteOffset": 104724,
      "target": 34962
    },
    {
      "buffer": 0,
      "byteLength": 4032,
      "byteOffset": 110772,
      "target": 34962
    },
    {
      "buffer": 0,
      "byteLength": 3600,
      "byteOffset": 114804,
      "target": 34963
    }
  ],
  "samplers": [
    {
      "magFilter": 9729,
      "minFilter": 9987
    }
  ],
  "buffers": [
    {
      "byteLength": 118404,
      "uri": "vintage_lighter.bin"
    }
  ]
}